<svg id="Capa_1" enable-background="new 0 0 512 512" height="512" viewBox="0 0 512 512" width="512" xmlns="http://www.w3.org/2000/svg"><path d="m318.78 85.261 16.719-21.491c.633-.814.747-1.917.295-2.844-.453-.926-1.393-1.514-2.425-1.514h-85.686v51.697h85.686c1.031 0 1.972-.588 2.425-1.514.452-.927.338-2.029-.295-2.844z" fill="#fe646f"/><path d="m335.499 106.752-16.719-21.491h-71.097v25.849h85.686c1.031 0 1.972-.588 2.425-1.514.452-.927.338-2.03-.295-2.844z" fill="#fd4755"/><path d="m237.677 178.261c.703-1.28 2.046-2.075 3.506-2.075s2.803.795 3.506 2.075l3.994 7.27v-127.348c0-4.142-3.358-7.5-7.5-7.5s-7.5 3.358-7.5 7.5v127.348z" fill="#e41f2d"/><path d="m181.288 447.317h96.424l57.963-105.511-20.843-37.941h-49.915c-2.413 0-5.892-1.441-7.598-3.147l-11.606-11.606c-1.104-1.104-2.577-1.712-4.147-1.712s-3.043.608-4.147 1.712l-18.903 18.903c-.726.726-1.697 1.126-2.733 1.126s-2.007-.4-2.733-1.126l-14.525-14.525c-2.093-2.093-6.052-3.733-9.012-3.733h-14.229l-40.276 73.315z" fill="#08a9f1"/><path d="m152.507 394.928 52.284-95.171-6.267-6.266c-2.093-2.093-6.052-3.733-9.012-3.733h-14.229l-40.276 73.315z" fill="#0290cf"/><path d="m189.513 290.757c2.676 0 6.413 1.548 8.305 3.44l14.525 14.525c1.892 1.892 4.988 1.892 6.88 0l18.903-18.903c1.892-1.892 4.988-1.892 6.88 0l11.606 11.606c1.892 1.893 5.629 3.44 8.305 3.44h50.464l-69.816-127.086c-.878-1.599-2.558-2.593-4.382-2.593s-3.504.994-4.382 2.593l-62.066 112.979h14.778z" fill="#efe2dd"/><path d="m189.513 290.757c2.676 0 6.413 1.548 8.305 3.44l6.472 6.472 54.393-99.012-13.118-23.878c-.878-1.599-2.558-2.593-4.382-2.593s-3.504.994-4.382 2.593l-62.066 112.979h14.778z" fill="#e1d3ce"/><path d="m482.888 447.317-45.146-82.18h-26.742c-2.486 0-6.071-1.485-7.829-3.243l-9.429-9.429c-1.129-1.129-2.636-1.751-4.243-1.751-1.606 0-3.113.622-4.243 1.751l-6.429 6.429c-1.758 1.758-5.343 3.243-7.829 3.243h-47.635l-46.794 85.18z" fill="#97d729"/><path d="m312.112 447.317 46.794-85.179h-35.541l-46.794 85.179z" fill="#8bc727"/><path d="m371 363.138c2.75 0 6.591-1.591 8.536-3.536l6.429-6.429c1.945-1.945 5.126-1.945 7.071 0l9.429 9.429c1.945 1.945 5.786 3.536 8.536 3.536h27.291l-54.179-98.623c-.878-1.599-2.558-2.593-4.382-2.593s-3.504.994-4.382 2.593l-52.531 95.623z" fill="#efe2dd"/><path d="m384.112 267.515c-.878-1.599-2.558-2.593-4.382-2.593s-3.504.994-4.382 2.593l-52.531 95.623h35l39.414-71.744z" fill="#e1d3ce"/><path d="m182.429 447.317-31.919-58.103-20.681 20.681c-.752.751-1.756 1.165-2.829 1.165-1.072 0-2.077-.414-2.829-1.165l-12.929-12.929c-2.147-2.147-6.207-3.829-9.243-3.829h-42.779l-29.764 54.179h152.973z" fill="#97d729"/><path d="m64.456 447.317 29.764-54.179h-35l-29.764 54.179z" fill="#8bc727"/><path d="m110.536 397.674 12.929 12.929c1.945 1.945 5.126 1.945 7.071 0l20.476-20.475-40.686-74.061c-.878-1.599-2.558-2.593-4.382-2.593s-3.504.994-4.382 2.593l-42.89 78.072h43.328c2.75-.001 6.591 1.59 8.536 3.535z" fill="#efe2dd"/><path d="m93.671 394.138 29.772-54.194-13.118-23.878c-.878-1.599-2.558-2.593-4.382-2.593s-3.504.994-4.382 2.593l-42.89 78.072z" fill="#e1d3ce"/><path d="m504.5 461.317h-497c-4.142 0-7.5-3.358-7.5-7.5s3.358-7.5 7.5-7.5h497c4.142 0 7.5 3.358 7.5 7.5 0 4.143-3.358 7.5-7.5 7.5z" fill="#81b823"/><path d="m62.589 108.96h25.334c.255-11.652 9.774-21.022 21.488-21.022 5.662 0 10.809 2.192 14.648 5.77 5.184-8.066 14.229-13.413 24.529-13.413 15.936 0 28.876 12.791 29.132 28.666h3.356c10.819 0 19.589 8.77 19.589 19.589s-8.77 19.589-19.589 19.589h-118.487c-10.818 0-19.589-8.77-19.589-19.589 0-10.82 8.77-19.59 19.589-19.59z" fill="#d4f2f6"/><path d="m181.078 108.96h-3.356c-.256-15.875-13.196-28.666-29.132-28.666-8.39 0-15.946 3.549-21.263 9.225.505-.025 1.01-.048 1.519-.048 16.525 0 30.186 13.442 30.452 29.965.056 3.444 2.864 6.208 6.309 6.208h4.235c10.151 0 18.41 8.258 18.41 18.408 0 .954-.095 1.884-.236 2.798 7.39-2.803 12.652-9.929 12.652-18.301-.001-10.819-8.771-19.589-19.59-19.589z" fill="#a6e7f0"/><path d="m443.649 187.087h-24.723c-.249-11.371-9.538-20.515-20.969-20.515-5.525 0-10.548 2.139-14.295 5.63-5.059-7.871-13.885-13.089-23.937-13.089-15.551 0-28.179 12.482-28.429 27.974h-3.275c-10.558 0-19.116 8.558-19.116 19.116s8.559 19.116 19.116 19.116h115.629c10.557 0 19.116-8.558 19.116-19.116-.001-10.558-8.56-19.116-19.117-19.116z" fill="#d4f2f6"/><path d="m328.02 187.087h3.275c.25-15.492 12.878-27.974 28.429-27.974 8.188 0 15.561 3.463 20.75 9.002-.493-.024-.986-.046-1.482-.046-16.126 0-29.457 13.118-29.717 29.241-.054 3.361-2.794 6.058-6.156 6.058h-4.133c-9.906 0-17.965 8.059-17.965 17.964 0 .931.093 1.838.23 2.731-7.211-2.735-12.347-9.689-12.347-17.859 0-10.559 8.558-19.117 19.116-19.117z" fill="#a6e7f0"/></svg>