<?xml version="1.0" encoding="iso-8859-1"?>
<!-- Generator: Adobe Illustrator 19.0.0, SVG Export Plug-In . SVG Version: 6.00 Build 0)  -->
<svg version="1.1" id="Capa_1" xmlns="http://www.w3.org/2000/svg" xmlns:xlink="http://www.w3.org/1999/xlink" x="0px" y="0px"
	 viewBox="0 0 512.001 512.001" style="enable-background:new 0 0 512.001 512.001;" xml:space="preserve">
<path style="fill:#1E88E5;" d="M499.628,407.468c-10.133,12.16-25.131,19.2-40.96,19.2H53.334c-15.829,0-30.827-7.04-40.96-19.2
	l195.627-162.987l20.267,13.867c16.704,11.52,38.763,11.52,55.467,0l20.267-13.867L499.628,407.468z"/>
<path style="fill:#64B5F6;" d="M502.614,108.588L304.001,244.481l-20.267,13.867c-16.704,11.52-38.763,11.52-55.467,0
	l-20.267-13.867L9.388,108.374c10.005-14.4,26.411-23.019,43.947-23.04h405.333C476.289,85.249,492.78,93.974,502.614,108.588z"/>
<g>
	<path style="fill:#2196F3;" d="M208.001,244.481L12.374,407.468c-8-9.579-12.395-21.653-12.373-34.133V138.668
		c-0.064-10.816,3.221-21.397,9.387-30.293L208.001,244.481z"/>
	<path style="fill:#2196F3;" d="M512.001,138.668v234.667c0.021,12.48-4.373,24.555-12.373,34.133L304.001,244.481l198.613-135.893
		C508.758,117.42,512.044,127.916,512.001,138.668z"/>
</g>
<path d="M458.668,426.668H53.334c-29.397,0-53.333-23.915-53.333-53.333V138.668c0-29.397,23.936-53.333,53.333-53.333h405.333
	c29.419,0,53.333,23.936,53.333,53.333v234.667C512.001,402.753,488.086,426.668,458.668,426.668z M53.334,106.668
	c-17.643,0-32,14.357-32,32v234.667c0,17.643,14.357,32,32,32h405.333c17.643,0,32-14.357,32-32V138.668c0-17.643-14.357-32-32-32
	H53.334z"/>
<path d="M256.001,277.548c-11.84,0-23.659-3.456-33.749-10.368L47.318,147.478c-4.864-3.328-6.101-9.984-2.795-14.827
	c3.307-4.864,9.941-6.101,14.827-2.773L234.284,249.58c12.971,8.896,30.421,8.896,43.413,0L452.63,129.878
	c4.864-3.285,11.477-2.091,14.827,2.773c3.307,4.864,2.091,11.499-2.795,14.827L289.729,267.201
	C279.66,274.092,267.841,277.548,256.001,277.548z"/>
<path d="M53.334,384.001c-3.072,0-6.101-1.323-8.213-3.84c-3.776-4.523-3.157-11.243,1.365-15.019l128-106.667
	c4.544-3.776,11.264-3.136,15.04,1.344c3.776,4.523,3.157,11.243-1.365,15.019l-128,106.667
	C58.177,383.19,55.745,384.001,53.334,384.001z"/>
<path d="M458.668,384.001c-2.411,0-4.843-0.811-6.827-2.475l-128-106.667c-4.523-3.776-5.12-10.496-1.344-15.019
	c3.797-4.523,10.517-5.12,15.019-1.344l128,106.667c4.523,3.776,5.12,10.496,1.344,15.019
	C464.748,382.678,461.718,384.001,458.668,384.001z"/>
<g>
</g>
<g>
</g>
<g>
</g>
<g>
</g>
<g>
</g>
<g>
</g>
<g>
</g>
<g>
</g>
<g>
</g>
<g>
</g>
<g>
</g>
<g>
</g>
<g>
</g>
<g>
</g>
<g>
</g>
</svg>
