<svg width="257" height="182" viewBox="0 0 257 182" fill="none" xmlns="http://www.w3.org/2000/svg">
<rect width="257" height="182" fill="#21252B"/>
<line x1="1.09241" y1="161.785" x2="104.112" y2="84.8114" stroke="#249BE5" stroke-width="3"/>
<line x1="160.111" y1="84.9549" x2="254.111" y2="15.7918" stroke="#249BE5" stroke-width="3"/>
<line x1="101.975" y1="85.5002" x2="160.975" y2="84.5002" stroke="#249BE5" stroke-width="3"/>
<circle cx="51.5" cy="123.5" r="2.5" fill="#3F51B5"/>
<path d="M164 84.5C164 85.8807 162.881 87 161.5 87C160.119 87 159 85.8807 159 84.5C159 83.1193 160.119 82 161.5 82C162.881 82 164 83.1193 164 84.5Z" fill="#3F51B5"/>
<circle cx="2.5" cy="160.5" r="2.5" fill="#3F51B5"/>
<circle cx="209.5" cy="48.5" r="2.5" fill="#3F51B5"/>
<circle cx="103.5" cy="85.5" r="2.5" fill="#3F51B5"/>
<path d="M257 15.5C257 16.8807 255.881 18 254.5 18C253.119 18 252 16.8807 252 15.5C252 14.1193 253.119 13 254.5 13C255.881 13 257 14.1193 257 15.5Z" fill="#3F51B5"/>
</svg>
